<svg xmlns="http://www.w3.org/2000/svg" width="19.672" height="20.298" viewBox="0 0 19.672 20.298">
  <path id="club-down" d="M17.769,9.184a4.721,4.721,0,0,0-4.5-.666,4.943,4.943,0,1,0-6.873,0A4.765,4.765,0,0,0,0,12.986a4.825,4.825,0,0,0,4.763,4.763,4.508,4.508,0,0,0,2.45-.73A5.173,5.173,0,0,0,8.2,16.2c.046-.055.094-.1.137-.164.478-.65.582-1.294.713-1.265.029.006.049.043.063.1a4.1,4.1,0,0,1,0,.936,5.62,5.62,0,0,1-.529,2.075,4.824,4.824,0,0,1-1,1.436c-.211.167-.393.368-.591.551a.456.456,0,0,0-.056.063.3.3,0,0,0-.08.2.25.25,0,0,0,.136.172h5.69a.25.25,0,0,0,.136-.172.3.3,0,0,0-.08-.2.459.459,0,0,0-.056-.063c-.2-.182-.38-.383-.591-.551a4.82,4.82,0,0,1-1-1.436,5.615,5.615,0,0,1-.529-2.075,4.093,4.093,0,0,1,0-.936c.014-.056.035-.092.063-.1.131-.029.235.615.713,1.265.044.059.091.109.137.164a5.168,5.168,0,0,0,.989.823,4.508,4.508,0,0,0,2.45.73,4.825,4.825,0,0,0,4.763-4.763,4.75,4.75,0,0,0-1.9-3.8" transform="translate(19.672 20.298) rotate(180)" fill="#383933"/>
</svg>
