<svg xmlns="http://www.w3.org/2000/svg" width="19.383" height="20" viewBox="0 0 19.383 20">
  <path id="club-up" d="M887.966,9.048a4.651,4.651,0,0,0-4.431-.656,4.871,4.871,0,1,0-6.772,0,4.695,4.695,0,0,0-6.306,4.4,4.754,4.754,0,0,0,4.693,4.693,4.442,4.442,0,0,0,2.414-.719,5.094,5.094,0,0,0,.974-.811c.045-.054.092-.1.135-.162.471-.64.574-1.275.7-1.246.028.006.048.042.062.1a4.043,4.043,0,0,1,0,.922,5.539,5.539,0,0,1-.521,2.044,4.754,4.754,0,0,1-.99,1.415c-.208.165-.387.363-.582.543a.44.44,0,0,0-.055.062.293.293,0,0,0-.079.2.247.247,0,0,0,.134.17h5.606a.247.247,0,0,0,.134-.17.292.292,0,0,0-.079-.2.447.447,0,0,0-.055-.062c-.2-.18-.374-.378-.582-.543a4.75,4.75,0,0,1-.989-1.415,5.533,5.533,0,0,1-.521-2.044,4.029,4.029,0,0,1,0-.922c.014-.055.034-.091.062-.1.129-.029.232.606.7,1.246.043.058.09.108.135.162a5.089,5.089,0,0,0,.974.811,4.441,4.441,0,0,0,2.414.719,4.754,4.754,0,0,0,4.693-4.693,4.68,4.68,0,0,0-1.875-3.746" transform="translate(-870.458 0.001)" fill="#383933"/>
</svg>
