<svg xmlns="http://www.w3.org/2000/svg" width="20.067" height="20" viewBox="0 0 20.067 20">
  <path id="heart-up" d="M302.4,3.821A5.528,5.528,0,0,0,300.3,1,4.9,4.9,0,0,0,298.647.3a4.82,4.82,0,0,0-2.25.066,4.758,4.758,0,0,0-2.022,1.016,5,5,0,0,0-.948,1.131,6.067,6.067,0,0,0-.721,1.577,6.067,6.067,0,0,0-.721-1.577,5,5,0,0,0-.948-1.131A4.758,4.758,0,0,0,289.015.363,4.82,4.82,0,0,0,286.765.3a4.9,4.9,0,0,0-1.65.707,5.528,5.528,0,0,0-2.1,2.817,6.545,6.545,0,0,0-.336,2.4,7.025,7.025,0,0,0,.576,2.467,11.686,11.686,0,0,0,2.619,3.658c.042.045.03.032.61.619,1.143,1.158,2.566,2.6,2.843,2.89a28.565,28.565,0,0,1,3.345,4.292l.034.051.034-.051a28.572,28.572,0,0,1,3.346-4.292c.277-.285,1.7-1.732,2.843-2.89.58-.588.568-.575.61-.619a11.686,11.686,0,0,0,2.619-3.658,7.024,7.024,0,0,0,.576-2.467,6.548,6.548,0,0,0-.336-2.4" transform="translate(-282.672 -0.193)" fill="#383933"/>
</svg>
