<svg xmlns="http://www.w3.org/2000/svg" width="20.366" height="20.298" viewBox="0 0 20.366 20.298">
  <path id="heart-down" d="M20.019,3.682A5.611,5.611,0,0,0,17.888.823,4.968,4.968,0,0,0,16.213.105a4.892,4.892,0,0,0-2.284.067A4.829,4.829,0,0,0,11.876,1.2a5.074,5.074,0,0,0-.962,1.148,6.156,6.156,0,0,0-.731,1.6,6.158,6.158,0,0,0-.731-1.6A5.074,5.074,0,0,0,8.49,1.2,4.829,4.829,0,0,0,6.437.172,4.892,4.892,0,0,0,4.153.105,4.969,4.969,0,0,0,2.478.823,5.61,5.61,0,0,0,.347,3.682,6.643,6.643,0,0,0,.006,6.113a7.13,7.13,0,0,0,.584,2.5,11.86,11.86,0,0,0,2.658,3.712c.043.046.031.032.619.629,1.16,1.175,2.6,2.644,2.885,2.933a28.992,28.992,0,0,1,3.4,4.356l.034.052.034-.052a29,29,0,0,1,3.4-4.356c.281-.289,1.726-1.758,2.885-2.933.589-.6.576-.583.619-.629a11.86,11.86,0,0,0,2.658-3.712,7.128,7.128,0,0,0,.584-2.5,6.644,6.644,0,0,0-.341-2.431" transform="translate(20.366 20.298) rotate(180)" fill="#383933"/>
</svg>
